<svg width="94" height="92" viewBox="0 0 94 92" fill="none" xmlns="http://www.w3.org/2000/svg">
<g filter="url(#filter0_d_8101_1176)">
<rect x="11.4954" width="82.93" height="80.1587" rx="40.0794" transform="rotate(8.24502 11.4954 0)" fill="#F1AF9E" shape-rendering="crispEdges"/>
<path d="M27.2291 42.6889L26.7507 45.9904L18.0575 44.7307L18.5359 41.4292L27.2291 42.6889ZM31.5864 51.4928L32.8942 42.467C32.9539 42.0553 33.0147 41.6357 33.0767 41.2082C33.1567 40.7671 33.2301 40.317 33.2966 39.8578C32.7052 40.2571 32.0664 40.593 31.3803 40.8654C30.6964 41.1219 29.997 41.2631 29.2819 41.2888L29.3906 37.861C29.8069 37.889 30.2572 37.8491 30.7417 37.7415C31.2419 37.6362 31.74 37.4901 32.236 37.3033C32.7319 37.1164 33.1826 36.9069 33.5881 36.6747C33.9959 36.4266 34.3154 36.1738 34.5467 35.9163L37.8008 36.3878L35.5292 52.0641L31.5864 51.4928ZM44.8926 53.6634C42.7549 53.3536 41.2305 52.4376 40.3194 50.9152C39.4242 49.3951 39.1693 47.3049 39.5547 44.6447C39.9402 41.9845 40.7779 40.0526 42.0678 38.8492C43.3736 37.648 45.0953 37.2023 47.233 37.5121C49.3706 37.8218 50.8871 38.7368 51.7824 40.2569C52.6935 41.7793 52.9563 43.8706 52.5708 46.5308C52.1853 49.191 51.3397 51.1217 50.034 52.3229C48.744 53.5263 47.0302 53.9732 44.8926 53.6634ZM45.3538 50.4806C45.9396 50.5655 46.4376 50.476 46.8477 50.2121C47.2601 49.9324 47.5971 49.4477 47.8587 48.7581C48.1384 48.0549 48.3632 47.1174 48.533 45.9457C48.7028 44.7739 48.7522 43.8191 48.6813 43.0813C48.6285 42.33 48.4429 41.7696 48.1246 41.4001C47.8086 41.0148 47.3576 40.7797 46.7718 40.6948C46.2017 40.6122 45.7026 40.7097 45.2744 40.9871C44.8643 41.251 44.5194 41.7346 44.2397 42.4377C43.9781 43.1274 43.7624 44.058 43.5926 45.2298C43.4228 46.4016 43.3643 47.3631 43.4171 48.1144C43.488 48.8522 43.6815 49.4138 43.9975 49.7991C44.3316 50.1709 44.7837 50.398 45.3538 50.4806ZM56.7211 55.1349L69.8983 41.0146L72.986 41.4621L59.8089 55.5823L56.7211 55.1349ZM60.0009 39.3622C60.9035 39.493 61.6519 39.7955 62.246 40.2696C62.8583 40.7301 63.2983 41.3193 63.5662 42.0371C63.834 42.755 63.9025 43.5652 63.7717 44.4677C63.6409 45.3703 63.3453 46.1278 62.8847 46.74C62.4241 47.3523 61.8338 47.8003 61.1137 48.0839C60.4117 48.3541 59.6094 48.4237 58.7068 48.2929C57.8201 48.1645 57.0706 47.8699 56.4583 47.4094C55.8641 46.9353 55.4252 46.3381 55.1416 45.618C54.8737 44.9002 54.8052 44.09 54.936 43.1874C55.0668 42.2848 55.3625 41.5274 55.823 40.9151C56.2994 40.3051 56.8886 39.8651 57.5906 39.595C58.3108 39.3113 59.1142 39.2337 60.0009 39.3622ZM59.6086 42.0699C59.3077 42.0263 59.044 42.0609 58.8175 42.1736C58.5933 42.2704 58.4063 42.4454 58.2564 42.6985C58.1089 42.9358 58.0076 43.2445 57.9525 43.6245C57.8997 43.9887 57.9093 44.3134 57.9811 44.5987C58.0529 44.8839 58.1815 45.1127 58.3667 45.2851C58.5542 45.4416 58.7983 45.5416 59.0992 45.5852C59.4159 45.6311 59.6863 45.6056 59.9105 45.5088C60.137 45.3961 60.3252 45.2132 60.4751 44.9601C60.6249 44.7069 60.7262 44.3983 60.779 44.0341C60.8341 43.6541 60.8245 43.3293 60.7504 43.0599C60.6786 42.7747 60.5489 42.5538 60.3614 42.3973C60.1762 42.2249 59.9253 42.1158 59.6086 42.0699ZM70.9494 48.3209C71.8361 48.4494 72.5845 48.7518 73.1944 49.2282C73.8067 49.6888 74.2468 50.278 74.5146 50.9958C74.7824 51.7137 74.851 52.5239 74.7202 53.4264C74.5894 54.329 74.2937 55.0864 73.8331 55.6987C73.3726 56.311 72.7822 56.759 72.0621 57.0426C71.3443 57.3104 70.542 57.3801 69.6553 57.2516C68.7685 57.1231 68.019 56.8286 67.4067 56.368C66.7967 55.8916 66.3578 55.2945 66.09 54.5767C65.8222 53.8589 65.7537 53.0487 65.8844 52.1461C66.0152 51.2435 66.3109 50.4861 66.7715 49.8738C67.232 49.2615 67.8212 48.8215 68.5391 48.5536C69.2592 48.27 70.0626 48.1924 70.9494 48.3209ZM70.557 51.0286C70.2561 50.985 69.9845 51.0184 69.7422 51.1288C69.518 51.2257 69.331 51.4006 69.1811 51.6538C69.0336 51.8911 68.9323 52.1997 68.8772 52.5798C68.8244 52.9439 68.8339 53.2687 68.9058 53.5539C68.9776 53.8392 69.1061 54.068 69.2913 54.2403C69.4947 54.3991 69.7468 54.5003 70.0476 54.5439C70.3643 54.5898 70.6348 54.5643 70.859 54.4675C71.0855 54.3548 71.2736 54.1719 71.4235 53.9187C71.5733 53.6656 71.6746 53.357 71.7274 52.9928C71.7825 52.6127 71.773 52.288 71.6988 52.0186C71.627 51.7333 71.4973 51.5125 71.3098 51.356C71.1246 51.1836 70.8737 51.0745 70.557 51.0286Z" fill="#FDF3F0"/>
</g>
<defs>
<filter id="filter0_d_8101_1176" x="0" y="0" width="95.4609" height="93.1157" filterUnits="userSpaceOnUse" color-interpolation-filters="sRGB">
<feFlood flood-opacity="0" result="BackgroundImageFix"/>
<feColorMatrix in="SourceAlpha" type="matrix" values="0 0 0 0 0 0 0 0 0 0 0 0 0 0 0 0 0 0 127 0" result="hardAlpha"/>
<feOffset dx="1.89278" dy="1.89278"/>
<feComposite in2="hardAlpha" operator="out"/>
<feColorMatrix type="matrix" values="0 0 0 0 0.980392 0 0 0 0 0.870588 0 0 0 0 0.498039 0 0 0 1 0"/>
<feBlend mode="normal" in2="BackgroundImageFix" result="effect1_dropShadow_8101_1176"/>
<feBlend mode="normal" in="SourceGraphic" in2="effect1_dropShadow_8101_1176" result="shape"/>
</filter>
</defs>
</svg>
