<svg width="94" height="92" viewBox="0 0 94 92" fill="none" xmlns="http://www.w3.org/2000/svg">
<g filter="url(#filter0_d_8101_1180)">
<rect x="11.4951" width="82.9278" height="80.1587" rx="40.0794" transform="rotate(8.24502 11.4951 0)" fill="#F1AF9E" shape-rendering="crispEdges"/>
<path d="M25.7433 42.4736L25.2649 45.7751L16.5717 44.5154L17.0501 41.2139L25.7433 42.4736ZM26.8499 50.8064L27.2285 48.1937C28.696 47.5495 29.9576 46.932 31.0132 46.3413C32.0688 45.7506 32.9366 45.1731 33.6166 44.6087C34.3124 44.0467 34.8452 43.4934 35.2152 42.9488C35.5851 42.4042 35.8102 41.8548 35.8905 41.3006C35.9777 40.6989 35.8679 40.1737 35.561 39.7251C35.2723 39.2629 34.7796 38.9814 34.0829 38.8804C33.3387 38.7726 32.7205 38.9659 32.2285 39.4605C31.7388 39.9392 31.4024 40.6988 31.2193 41.7393L27.8827 40.1645C28.0841 38.9973 28.5035 38.0557 29.1408 37.3397C29.7939 36.626 30.6083 36.1378 31.5841 35.875C32.5621 35.5964 33.637 35.5419 34.8088 35.7117C35.8381 35.8609 36.703 36.1398 37.4036 36.5485C38.1224 36.9437 38.6837 37.4211 39.0876 37.9808C39.4938 38.5247 39.7642 39.1135 39.8987 39.7474C40.0513 40.3677 40.0829 40.9866 39.9934 41.6042C39.8465 42.6176 39.4476 43.5298 38.7966 44.3408C38.1478 45.136 37.265 45.873 36.1481 46.5519C35.0493 47.2172 33.7357 47.8594 32.2071 48.4786L32.2036 48.5023C32.4751 48.5255 32.7941 48.5556 33.1606 48.5925C33.5271 48.6295 33.9082 48.6766 34.3041 48.734C34.7023 48.7755 35.0597 48.8192 35.3764 48.8651L39.0579 49.3986L38.6071 52.5101L26.8499 50.8064ZM47.1876 53.9959C45.0499 53.6862 43.5255 52.7701 42.6144 51.2477C41.7191 49.7276 41.4642 47.6374 41.8497 44.9772C42.2352 42.317 43.0729 40.3852 44.3628 39.1817C45.6686 37.9806 47.3903 37.5349 49.5279 37.8446C51.6656 38.1544 53.1821 39.0693 54.0774 40.5894C54.9884 42.1118 55.2513 44.2031 54.8658 46.8633C54.4803 49.5235 53.6347 51.4542 52.3289 52.6554C51.039 53.8588 49.3252 54.3057 47.1876 53.9959ZM47.6487 50.8132C48.2346 50.8981 48.7326 50.8086 49.1427 50.5446C49.5551 50.2649 49.8921 49.7802 50.1537 49.0906C50.4334 48.3874 50.6582 47.45 50.828 46.2782C50.9977 45.1064 51.0472 44.1517 50.9763 43.4139C50.9235 42.6625 50.7379 42.1021 50.4196 41.7327C50.1036 41.3474 49.6526 41.1123 49.0668 41.0274C48.4967 40.9448 47.9976 41.0422 47.5694 41.3197C47.1593 41.5836 46.8144 42.0671 46.5346 42.7703C46.273 43.4599 46.0573 44.3906 45.8876 45.5623C45.7178 46.7341 45.6593 47.6956 45.7121 48.447C45.783 49.1848 45.9765 49.7463 46.2925 50.1316C46.6266 50.5034 47.0787 50.7306 47.6487 50.8132ZM59.0161 55.4674L72.1932 41.3472L75.281 41.7946L62.1039 55.9149L59.0161 55.4674ZM62.2959 39.6947C63.1985 39.8255 63.9468 40.128 64.541 40.6021C65.1533 41.0626 65.5933 41.6518 65.8612 42.3697C66.129 43.0875 66.1975 43.8977 66.0667 44.8003C65.9359 45.7028 65.6403 46.4603 65.1797 47.0726C64.7191 47.6848 64.1288 48.1328 63.4087 48.4165C62.7067 48.6866 61.9044 48.7563 61.0018 48.6255C60.1151 48.497 59.3656 48.2025 58.7533 47.7419C58.1591 47.2678 57.7202 46.6707 57.4366 45.9505C57.1687 45.2327 57.1002 44.4225 57.231 43.5199C57.3618 42.6174 57.6575 41.8599 58.118 41.2477C58.5944 40.6377 59.1836 40.1976 59.8856 39.9275C60.6057 39.6438 61.4092 39.5663 62.2959 39.6947ZM61.9036 42.4025C61.6027 42.3589 61.339 42.3934 61.1125 42.5061C60.8883 42.6029 60.7013 42.7779 60.5514 43.0311C60.4039 43.2684 60.3026 43.577 60.2475 43.957C60.1947 44.3212 60.2043 44.646 60.2761 44.9312C60.3479 45.2165 60.4764 45.4453 60.6616 45.6176C60.8491 45.7741 61.0933 45.8742 61.3942 45.9178C61.7109 45.9636 61.9813 45.9382 62.2055 45.8413C62.432 45.7286 62.6202 45.5457 62.77 45.2926C62.9199 45.0395 63.0212 44.7308 63.074 44.3666C63.129 43.9866 63.1195 43.6619 63.0454 43.3924C62.9735 43.1072 62.8439 42.8863 62.6564 42.7298C62.4712 42.5575 62.2202 42.4484 61.9036 42.4025ZM73.2443 48.6534C74.1311 48.7819 74.8794 49.0844 75.4894 49.5608C76.1017 50.0213 76.5418 50.6105 76.8096 51.3284C77.0774 52.0462 77.1459 52.8564 77.0152 53.759C76.8844 54.6615 76.5887 55.419 76.1281 56.0312C75.6676 56.6435 75.0772 57.0915 74.3571 57.3751C73.6393 57.643 72.837 57.7126 71.9502 57.5841C71.0635 57.4557 70.314 57.1611 69.7017 56.7006C69.0917 56.2242 68.6528 55.627 68.385 54.9092C68.1172 54.1914 68.0486 53.3812 68.1794 52.4786C68.3102 51.576 68.6059 50.8186 69.0665 50.2063C69.527 49.5941 70.1162 49.154 70.8341 48.8862C71.5542 48.6025 72.3576 48.5249 73.2443 48.6534ZM72.852 51.3611C72.5511 51.3175 72.2795 51.3509 72.0372 51.4613C71.813 51.5582 71.626 51.7332 71.4761 51.9863C71.3286 52.2236 71.2272 52.5322 71.1722 52.9123C71.1194 53.2765 71.1289 53.6012 71.2008 53.8864C71.2726 54.1717 71.4011 54.4005 71.5863 54.5728C71.7897 54.7316 72.0417 54.8328 72.3426 54.8764C72.6593 54.9223 72.9297 54.8968 73.1539 54.8C73.3805 54.6873 73.5686 54.5044 73.7185 54.2513C73.8683 53.9981 73.9696 53.6895 74.0224 53.3253C74.0775 52.9453 74.0679 52.6205 73.9938 52.3511C73.922 52.0659 73.7923 51.845 73.6048 51.6885C73.4196 51.5161 73.1687 51.407 72.852 51.3611Z" fill="#FDF3F0"/>
</g>
<defs>
<filter id="filter0_d_8101_1180" x="0" y="0" width="95.4587" height="93.1154" filterUnits="userSpaceOnUse" color-interpolation-filters="sRGB">
<feFlood flood-opacity="0" result="BackgroundImageFix"/>
<feColorMatrix in="SourceAlpha" type="matrix" values="0 0 0 0 0 0 0 0 0 0 0 0 0 0 0 0 0 0 127 0" result="hardAlpha"/>
<feOffset dx="1.89278" dy="1.89278"/>
<feComposite in2="hardAlpha" operator="out"/>
<feColorMatrix type="matrix" values="0 0 0 0 0.980392 0 0 0 0 0.870588 0 0 0 0 0.498039 0 0 0 1 0"/>
<feBlend mode="normal" in2="BackgroundImageFix" result="effect1_dropShadow_8101_1180"/>
<feBlend mode="normal" in="SourceGraphic" in2="effect1_dropShadow_8101_1180" result="shape"/>
</filter>
</defs>
</svg>
