<svg width="94" height="92" viewBox="0 0 94 92" fill="none" xmlns="http://www.w3.org/2000/svg">
<g filter="url(#filter0_d_8101_1178)">
<rect x="11.4954" width="82.93" height="80.1587" rx="40.0794" transform="rotate(8.24502 11.4954 0)" fill="#F1AF9E" shape-rendering="crispEdges"/>
<path d="M28.2189 42.8322L27.7405 46.1337L19.0473 44.8741L19.5257 41.5725L28.2189 42.8322ZM32.5761 51.6361L33.884 42.6103C33.9437 42.1986 34.0045 41.779 34.0664 41.3515C34.1465 40.9104 34.2198 40.4603 34.2863 40.0011C33.695 40.4004 33.0562 40.7363 32.37 41.0087C31.6862 41.2653 30.9867 41.4064 30.2716 41.4321L30.3803 38.0043C30.7966 38.0323 31.247 37.9924 31.7314 37.8848C32.2317 37.7795 32.7298 37.6334 33.2257 37.4466C33.7216 37.2598 34.1723 37.0502 34.5778 36.818C34.9856 36.5699 35.3052 36.3171 35.5365 36.0596L38.7905 36.5311L36.5189 52.2074L32.5761 51.6361ZM45.0272 53.6828C43.6655 53.4855 42.5157 53.0521 41.578 52.3827C40.6585 51.6998 39.9454 50.7073 39.4389 49.4052L43.2836 48.1435C43.366 48.8021 43.5697 49.349 43.8946 49.7841C44.2354 50.2215 44.7938 50.4964 45.5697 50.6088C46.0606 50.68 46.4928 50.6537 46.8664 50.53C47.24 50.4063 47.5459 50.1919 47.7841 49.8869C48.0404 49.5684 48.2042 49.1637 48.2753 48.6728C48.3441 48.1978 48.3065 47.7881 48.1623 47.4439C48.0341 47.102 47.8072 46.8266 47.4818 46.6178C47.1587 46.3931 46.7358 46.2429 46.2133 46.1672C45.8333 46.1121 45.4871 46.1024 45.1747 46.138C44.8647 46.1577 44.5727 46.2205 44.2987 46.3263C44.0428 46.4185 43.797 46.5527 43.5614 46.7287L40.5562 45.7112L42.8204 37.1151L52.7012 38.5468L52.2434 41.7059L45.3316 40.7043L44.4735 43.7811L44.3472 44.1508L44.3709 44.1542C44.7404 43.8359 45.2239 43.623 45.8215 43.5156C46.4191 43.4082 47.0662 43.405 47.763 43.5059C48.7922 43.6551 49.6412 43.9883 50.3099 44.5055C50.9787 45.0228 51.4593 45.6664 51.752 46.4363C52.0446 47.2062 52.1243 48.0504 51.9912 48.9688C51.8513 49.9347 51.5634 50.7498 51.1276 51.4142C50.71 52.065 50.1749 52.5776 49.5225 52.9519C48.8859 53.3285 48.1795 53.5737 47.4031 53.6876C46.6426 53.8037 45.8506 53.8021 45.0272 53.6828ZM56.2728 55.0698L69.4499 40.9496L72.5377 41.397L59.3605 55.5173L56.2728 55.0698ZM59.5526 39.2971C60.4551 39.4279 61.2035 39.7304 61.7977 40.2045C62.4099 40.665 62.85 41.2542 63.1178 41.9721C63.3856 42.6899 63.4542 43.5001 63.3234 44.4027C63.1926 45.3052 62.8969 46.0627 62.4363 46.675C61.9758 47.2872 61.3854 47.7352 60.6653 48.0189C59.9633 48.289 59.161 48.3587 58.2585 48.2279C57.3717 48.0994 56.6222 47.8048 56.0099 47.3443C55.4158 46.8702 54.9769 46.2731 54.6932 45.5529C54.4254 44.8351 54.3569 44.0249 54.4877 43.1223C54.6184 42.2198 54.9141 41.4623 55.3747 40.8501C55.8511 40.2401 56.4403 39.8 57.1423 39.5299C57.8624 39.2462 58.6658 39.1686 59.5526 39.2971ZM59.1602 42.0049C58.8593 41.9613 58.5957 41.9958 58.3692 42.1085C58.145 42.2053 57.9579 42.3803 57.8081 42.6335C57.6605 42.8707 57.5592 43.1794 57.5042 43.5594C57.4514 43.9236 57.4609 44.2484 57.5327 44.5336C57.6046 44.8189 57.7331 45.0477 57.9183 45.22C58.1058 45.3765 58.35 45.4766 58.6508 45.5201C58.9675 45.566 59.238 45.5406 59.4622 45.4437C59.6887 45.331 59.8768 45.1481 60.0267 44.895C60.1765 44.6419 60.2779 44.3332 60.3306 43.969C60.3857 43.589 60.3762 43.2643 60.302 42.9948C60.2302 42.7096 60.1005 42.4887 59.913 42.3322C59.7278 42.1599 59.4769 42.0508 59.1602 42.0049ZM70.501 48.2558C71.3877 48.3843 72.1361 48.6868 72.7461 49.1632C73.3584 49.6237 73.7984 50.2129 74.0662 50.9307C74.3341 51.6486 74.4026 52.4588 74.2718 53.3613C74.141 54.2639 73.8453 55.0213 73.3848 55.6336C72.9242 56.2459 72.3339 56.6939 71.6137 56.9775C70.8959 57.2454 70.0936 57.315 69.2069 57.1865C68.3202 57.0581 67.5706 56.7635 66.9584 56.303C66.3484 55.8266 65.9095 55.2294 65.6416 54.5116C65.3738 53.7938 65.3053 52.9836 65.4361 52.081C65.5669 51.1784 65.8626 50.421 66.3231 49.8087C66.7837 49.1965 67.3729 48.7564 68.0907 48.4886C68.8108 48.2049 69.6143 48.1273 70.501 48.2558ZM70.1086 50.9635C69.8078 50.9199 69.5362 50.9533 69.2938 51.0637C69.0696 51.1606 68.8826 51.3356 68.7328 51.5887C68.5852 51.826 68.4839 52.1346 68.4288 52.5147C68.3761 52.8789 68.3856 53.2036 68.4574 53.4888C68.5293 53.7741 68.6578 54.0029 68.843 54.1752C69.0463 54.334 69.2984 54.4352 69.5993 54.4788C69.916 54.5247 70.1864 54.4992 70.4106 54.4024C70.6371 54.2897 70.8253 54.1068 70.9751 53.8537C71.125 53.6005 71.2263 53.2919 71.2791 52.9277C71.3341 52.5477 71.3246 52.2229 71.2505 51.9535C71.1786 51.6683 71.049 51.4474 70.8615 51.2909C70.6763 51.1185 70.4253 51.0094 70.1086 50.9635Z" fill="#FDF3F0"/>
</g>
<defs>
<filter id="filter0_d_8101_1178" x="0" y="0" width="95.4609" height="93.1157" filterUnits="userSpaceOnUse" color-interpolation-filters="sRGB">
<feFlood flood-opacity="0" result="BackgroundImageFix"/>
<feColorMatrix in="SourceAlpha" type="matrix" values="0 0 0 0 0 0 0 0 0 0 0 0 0 0 0 0 0 0 127 0" result="hardAlpha"/>
<feOffset dx="1.89278" dy="1.89278"/>
<feComposite in2="hardAlpha" operator="out"/>
<feColorMatrix type="matrix" values="0 0 0 0 0.980392 0 0 0 0 0.870588 0 0 0 0 0.498039 0 0 0 1 0"/>
<feBlend mode="normal" in2="BackgroundImageFix" result="effect1_dropShadow_8101_1178"/>
<feBlend mode="normal" in="SourceGraphic" in2="effect1_dropShadow_8101_1178" result="shape"/>
</filter>
</defs>
</svg>
