<svg width="144" height="125" viewBox="0 0 144 125" fill="none" xmlns="http://www.w3.org/2000/svg">
<g filter="url(#filter0_d_8101_1208)">
<rect x="31" y="15.0376" width="82.134" height="79.7052" rx="39.8526" transform="rotate(-0.0262263 31 15.0376)" fill="#F1AF9E" shape-rendering="crispEdges"/>
<path d="M51.1279 55.4328L51.1294 58.7111L42.4974 58.7151L42.4959 55.4368L51.1279 55.4328ZM53.382 63.3799L53.3809 60.7856C54.7169 59.9516 55.8565 59.1728 56.7996 58.4491C57.7426 57.7254 58.5049 57.0411 59.0864 56.3962C59.6835 55.7513 60.1235 55.1378 60.4063 54.556C60.689 53.9741 60.8303 53.408 60.83 52.8577C60.8297 52.2602 60.6487 51.765 60.2869 51.3721C59.9408 50.9634 59.4218 50.7593 58.73 50.7596C57.991 50.7599 57.4173 51.0353 57.0087 51.5858C56.6001 52.1206 56.3804 52.9069 56.3494 53.9446L52.882 52.8849C52.9129 51.7214 53.1876 50.7464 53.7061 49.96C54.2403 49.1736 54.9633 48.5836 55.8751 48.1901C56.7868 47.7809 57.8245 47.576 58.988 47.5755C60.01 47.575 60.8906 47.724 61.6297 48.0224C62.3845 48.3051 62.9979 48.69 63.4698 49.1772C63.9417 49.6487 64.2879 50.1831 64.5083 50.7805C64.7444 51.3622 64.8626 51.9596 64.8629 52.5728C64.8633 53.5791 64.6043 54.5226 64.0859 55.4033C63.5674 56.2683 62.8131 57.1099 61.8229 57.9279C60.8484 58.7303 59.6617 59.5406 58.2627 60.3588L58.2627 60.3824C58.53 60.3665 58.8445 60.3507 59.2061 60.3348C59.5677 60.3189 59.9451 60.3109 60.3381 60.3107C60.7312 60.2948 61.085 60.2868 61.3995 60.2866L65.0551 60.2849L65.0565 63.3745L53.382 63.3799ZM73.6109 63.6065C71.4883 63.6074 69.8763 62.9321 68.7751 61.5804C67.6896 60.2287 67.1462 58.2321 67.145 55.5906C67.1438 52.9491 67.6853 50.952 68.7696 49.5993C69.8696 48.2466 71.4809 47.5698 73.6036 47.5688C75.7262 47.5678 77.3303 48.2432 78.4158 49.5949C79.517 50.9466 80.0682 52.9432 80.0695 55.5847C80.0707 58.2262 79.5213 60.2233 78.4213 61.576C77.337 62.9287 75.7335 63.6055 73.6109 63.6065ZM73.6094 60.4461C74.1912 60.4458 74.6628 60.2884 75.0243 59.9738C75.3858 59.6434 75.645 59.1244 75.8019 58.4168C75.9745 57.6935 76.0606 56.75 76.06 55.5865C76.0595 54.423 75.9726 53.4875 75.7993 52.7801C75.6418 52.0569 75.3821 51.5381 75.0203 51.2238C74.6585 50.8938 74.1868 50.7289 73.605 50.7292C73.039 50.7294 72.5673 50.8947 72.1901 51.2251C71.8286 51.5397 71.5616 52.0587 71.389 52.7821C71.2321 53.4897 71.1539 54.4253 71.1544 55.5888C71.1549 56.7523 71.234 57.6956 71.3915 58.4188C71.5648 59.1263 71.8324 59.645 72.1941 59.9751C72.5716 60.2894 73.0434 60.4464 73.6094 60.4461ZM85.3219 63.3653L96.1402 47.7708L99.2062 47.7694L88.3879 63.3639L85.3219 63.3653ZM86.2817 47.563C87.1779 47.5626 87.9484 47.7509 88.5932 48.128C89.2538 48.4893 89.765 49.0001 90.1269 49.6603C90.4889 50.3205 90.67 51.0987 90.6705 51.9949C90.6709 52.8912 90.4904 53.6696 90.1291 54.3301C89.7677 54.9906 89.257 55.5097 88.5968 55.8874C87.9523 56.2493 87.1819 56.4305 86.2857 56.4309C85.4052 56.4313 84.6347 56.2508 83.9742 55.8895C83.3293 55.5124 82.8181 54.9938 82.4404 54.3336C82.0785 53.6734 81.8973 52.8952 81.8969 51.999C81.8965 51.1027 82.077 50.3244 82.4383 49.6638C82.8154 49.0033 83.3261 48.492 83.9706 48.1301C84.6308 47.7525 85.4012 47.5634 86.2817 47.563ZM86.2829 50.2517C85.9841 50.2518 85.7326 50.3227 85.5283 50.4643C85.3239 50.5902 85.1668 50.7868 85.0568 51.0541C84.9469 51.3057 84.892 51.6202 84.8922 51.9976C84.8924 52.3592 84.9475 52.6737 85.0577 52.9409C85.1679 53.2082 85.3252 53.4125 85.5297 53.5539C85.7341 53.6796 85.9857 53.7424 86.2845 53.7422C86.599 53.7421 86.8584 53.6791 87.0627 53.5532C87.267 53.4116 87.4242 53.2071 87.5341 52.9398C87.6441 52.6724 87.6989 52.3579 87.6988 51.9963C87.6986 51.619 87.6434 51.3045 87.5332 51.053C87.4231 50.7857 87.2657 50.5893 87.0613 50.4636C86.8568 50.3222 86.5974 50.2515 86.2829 50.2517ZM98.1953 54.7273C99.0758 54.7269 99.8463 54.9153 100.507 55.2923C101.167 55.6536 101.679 56.1644 102.041 56.8246C102.402 57.4848 102.584 58.263 102.584 59.1593C102.584 60.0555 102.404 60.8339 102.043 61.4944C101.681 62.155 101.171 62.6741 100.51 63.0517C99.8502 63.4136 99.0798 63.5948 98.1993 63.5952C97.3188 63.5956 96.5483 63.4152 95.8878 63.0538C95.2272 62.6768 94.716 62.1581 94.354 61.4979C93.9921 60.8377 93.8109 60.0595 93.8105 59.1633C93.8101 58.2671 93.9906 57.4887 94.3519 56.8281C94.7132 56.1676 95.224 55.6564 95.8842 55.2944C96.5444 54.9168 97.3148 54.7277 98.1953 54.7273ZM98.1965 57.416C97.8977 57.4161 97.6383 57.487 97.4183 57.6286C97.2139 57.7545 97.0568 57.9511 96.9469 58.2185C96.8369 58.4701 96.782 58.7846 96.7822 59.1619C96.7824 59.5236 96.8375 59.838 96.9477 60.1052C97.0579 60.3725 97.2152 60.5768 97.4197 60.7182C97.6399 60.8439 97.8993 60.9067 98.1981 60.9066C98.5125 60.9064 98.772 60.8434 98.9763 60.7175C99.1806 60.5759 99.3378 60.3714 99.4477 60.1041C99.5576 59.8368 99.6125 59.5223 99.6124 59.1606C99.6122 58.7833 99.557 58.4688 99.4468 58.2173C99.3367 57.9501 99.1793 57.7536 98.9749 57.6279C98.7704 57.4865 98.5109 57.4159 98.1965 57.416Z" fill="#FDF3F0"/>
</g>
<g filter="url(#filter1_d_8101_1208)">
<rect x="93.8862" y="59" width="52.5216" height="52.1084" rx="26.0542" transform="rotate(17.7504 93.8862 59)" fill="white" shape-rendering="crispEdges"/>
<rect x="93.8862" y="59" width="52.5216" height="52.1084" rx="26.0542" transform="rotate(17.7504 93.8862 59)" fill="url(#paint0_linear_8101_1208)" shape-rendering="crispEdges"/>
<path d="M99.3196 88.4216L98.667 90.4603L93.2989 88.7419L93.9515 86.7032L99.3196 88.4216ZM101.144 94.4549L102.928 88.8815C103.01 88.6273 103.093 88.3681 103.177 88.1041C103.275 87.8335 103.369 87.5564 103.459 87.2728C103.043 87.4629 102.603 87.6078 102.14 87.7074C101.68 87.7974 101.222 87.8126 100.767 87.7531L101.199 85.5953C101.46 85.6571 101.749 85.6796 102.067 85.6628C102.395 85.6492 102.725 85.6095 103.059 85.5438C103.392 85.4781 103.7 85.3933 103.981 85.2893C104.266 85.1755 104.495 85.0494 104.668 84.9109L106.678 85.5542L103.579 95.2342L101.144 94.4549ZM108.807 97.0695C107.966 96.8003 107.284 96.4042 106.762 95.8813C106.252 95.3516 105.906 94.648 105.724 93.7702L108.291 93.3792C108.273 93.8047 108.344 94.1724 108.503 94.4822C108.673 94.7951 108.997 95.0282 109.476 95.1816C109.779 95.2786 110.055 95.3078 110.305 95.2691C110.555 95.2304 110.771 95.1272 110.954 94.9594C111.15 94.785 111.296 94.5462 111.393 94.2431C111.487 93.9498 111.507 93.6865 111.452 93.4534C111.407 93.2234 111.293 93.0251 111.109 92.8585C110.928 92.6821 110.677 92.5422 110.354 92.4389C110.119 92.3638 109.901 92.321 109.7 92.3104C109.502 92.29 109.31 92.2988 109.125 92.3367C108.954 92.368 108.784 92.4268 108.616 92.5133L106.822 91.5509L109.166 86.3507L115.267 88.3038L114.643 90.2545L110.375 88.8883L109.506 90.7445L109.387 90.9651L109.401 90.9698C109.669 90.8075 109.997 90.724 110.387 90.7193C110.777 90.7147 111.186 90.7812 111.617 90.9189C112.252 91.1224 112.754 91.4232 113.123 91.8214C113.491 92.2196 113.727 92.6779 113.831 93.1961C113.934 93.7144 113.895 94.257 113.714 94.8242C113.523 95.4206 113.254 95.906 112.908 96.2802C112.575 96.6479 112.182 96.9156 111.729 97.0833C111.287 97.2542 110.813 97.3345 110.31 97.3243C109.816 97.3172 109.315 97.2323 108.807 97.0695ZM115.777 99.1389L125.612 91.5992L127.519 92.2095L117.683 99.7493L115.777 99.1389ZM119.524 89.5047C120.081 89.6831 120.523 89.9538 120.848 90.3168C121.187 90.6731 121.403 91.0926 121.497 91.5753C121.59 92.058 121.548 92.578 121.369 93.1353C121.191 93.6926 120.923 94.1406 120.567 94.4793C120.211 94.818 119.79 95.0389 119.304 95.1422C118.831 95.2387 118.316 95.1978 117.758 95.0194C117.211 94.8441 116.768 94.5783 116.429 94.2219C116.103 93.8589 115.889 93.4345 115.786 92.9488C115.692 92.4661 115.735 91.9461 115.913 91.3888C116.092 90.8314 116.359 90.3834 116.715 90.0447C117.081 89.7092 117.501 89.4931 117.974 89.3966C118.46 89.2934 118.976 89.3294 119.524 89.5047ZM118.989 91.1767C118.803 91.1172 118.632 91.1111 118.477 91.1585C118.325 91.196 118.188 91.2869 118.066 91.4312C117.948 91.5658 117.851 91.7504 117.776 91.985C117.704 92.2099 117.675 92.4164 117.691 92.6046C117.706 92.7927 117.763 92.9511 117.862 93.0798C117.964 93.1987 118.108 93.2879 118.294 93.3474C118.489 93.41 118.663 93.4225 118.815 93.385C118.971 93.3377 119.109 93.2418 119.231 93.0975C119.352 92.9532 119.449 92.7686 119.521 92.5437C119.596 92.3091 119.625 92.1025 119.606 91.9242C119.591 91.7361 119.532 91.5825 119.43 91.4636C119.331 91.3349 119.184 91.2393 118.989 91.1767ZM125.503 96.3343C126.051 96.5096 126.492 96.7803 126.828 97.1465C127.167 97.5028 127.383 97.9223 127.476 98.405C127.569 98.8876 127.527 99.4076 127.349 99.965C127.17 100.522 126.903 100.97 126.546 101.309C126.19 101.648 125.769 101.869 125.283 101.972C124.801 102.065 124.285 102.024 123.738 101.849C123.19 101.674 122.747 101.408 122.409 101.052C122.073 100.685 121.859 100.261 121.765 99.7784C121.672 99.2958 121.714 98.7758 121.893 98.2184C122.071 97.6611 122.338 97.2131 122.695 96.8744C123.051 96.5357 123.471 96.3197 123.953 96.2262C124.439 96.123 124.956 96.1591 125.503 96.3343ZM124.968 98.0064C124.782 97.9469 124.607 97.9392 124.442 97.9834C124.29 98.021 124.153 98.1119 124.031 98.2562C123.913 98.3907 123.816 98.5753 123.741 98.81C123.669 99.0349 123.64 99.2414 123.655 99.4295C123.671 99.6177 123.728 99.7761 123.827 99.9048C123.939 100.027 124.087 100.118 124.273 100.177C124.469 100.24 124.643 100.252 124.795 100.215C124.95 100.167 125.088 100.072 125.21 99.9272C125.332 99.7829 125.429 99.5983 125.501 99.3734C125.576 99.1387 125.604 98.9322 125.586 98.7539C125.57 98.5657 125.512 98.4122 125.41 98.2933C125.311 98.1646 125.164 98.069 124.968 98.0064Z" fill="#F1AF9E"/>
</g>
<g filter="url(#filter2_dd_8101_1208)">
<rect y="22.4473" width="45.0864" height="43.5562" rx="21.7781" transform="rotate(-29.8593 0 22.4473)" fill="white" shape-rendering="crispEdges"/>
<rect y="22.4473" width="45.0864" height="43.5562" rx="21.7781" transform="rotate(-29.8593 0 22.4473)" fill="url(#paint1_linear_8101_1208)" shape-rendering="crispEdges"/>
<path d="M20.8933 35.1962L21.7803 36.7413L17.7119 39.0769L16.8249 37.5318L20.8933 35.1962ZM25.6258 37.4599L23.2009 33.2359C23.0903 33.0432 22.9776 32.8469 22.8627 32.6468C22.751 32.435 22.6335 32.2217 22.5101 32.0068C22.3932 32.3695 22.2354 32.7211 22.0368 33.0618C21.834 33.395 21.5866 33.6848 21.2945 33.9313L20.2105 32.4549C20.3947 32.3295 20.5708 32.1643 20.7389 31.9594C20.9145 31.7503 21.0756 31.5248 21.2225 31.2828C21.3693 31.0409 21.4897 30.8043 21.5835 30.573C21.6732 30.3344 21.7241 30.1228 21.7365 29.9384L23.2594 29.0641L27.4711 36.4006L25.6258 37.4599ZM31.9331 33.9869C30.9326 34.5612 29.9901 34.6786 29.1055 34.3391C28.2283 33.9954 27.4323 33.201 26.7176 31.956C26.0029 30.711 25.7183 29.6231 25.8637 28.6922C26.0166 27.7571 26.5933 27.0024 27.5937 26.4281C28.5941 25.8538 29.5329 25.7385 30.4101 26.0823C31.2947 26.4218 32.0944 27.214 32.8091 28.459C33.5238 29.704 33.8048 30.794 33.6519 31.7291C33.5064 32.66 32.9335 33.4126 31.9331 33.9869ZM31.0779 32.4974C31.3521 32.34 31.5319 32.1382 31.6173 31.8922C31.6984 31.6387 31.6803 31.3239 31.5629 30.9479C31.4487 30.5602 31.2342 30.0922 30.9194 29.5438C30.6046 28.9954 30.3107 28.5779 30.0378 28.2912C29.768 27.9929 29.5053 27.8185 29.2498 27.7682C28.99 27.7104 28.723 27.7602 28.4488 27.9176C28.182 28.0708 28.0044 28.2762 27.9159 28.5339C27.8305 28.78 27.8449 29.0969 27.9591 29.4846C28.0764 29.8606 28.2925 30.3228 28.6073 30.8712C28.9221 31.4195 29.2144 31.8429 29.4843 32.1413C29.7572 32.4279 30.0236 32.6002 30.2834 32.6579C30.5463 32.704 30.8112 32.6505 31.0779 32.4974ZM37.3889 30.707L38.273 20.4304L39.718 19.6008L38.8339 29.8774L37.3889 30.707ZM33.5691 22.9977C33.9915 22.7553 34.4057 22.6357 34.8116 22.6391C35.2207 22.6309 35.5998 22.7335 35.9489 22.9469C36.298 23.1603 36.5939 23.4782 36.8363 23.9006C37.0788 24.323 37.2042 24.7387 37.2124 25.1478C37.2207 25.5569 37.1202 25.9397 36.9111 26.2963C36.7051 26.6411 36.3909 26.9348 35.9685 27.1773C35.5535 27.4156 35.1415 27.5388 34.7324 27.547C34.3264 27.5436 33.9452 27.4373 33.5887 27.2282C33.2395 27.0148 32.9437 26.6969 32.7012 26.2745C32.4587 25.8521 32.3334 25.4363 32.3251 25.0272C32.3243 24.6139 32.4269 24.2348 32.6329 23.8899C32.842 23.5334 33.1541 23.236 33.5691 22.9977ZM34.2966 24.265C34.1558 24.3458 34.0563 24.4472 33.9983 24.5692C33.936 24.6838 33.9151 24.819 33.9355 24.9747C33.9517 25.1231 34.0109 25.2862 34.113 25.464C34.2108 25.6345 34.3218 25.7678 34.446 25.864C34.5702 25.9602 34.6996 26.014 34.8343 26.0254C34.9646 26.0294 35.1002 25.9909 35.241 25.9101C35.3892 25.825 35.4945 25.7252 35.5568 25.6106C35.6148 25.4886 35.6336 25.3497 35.6132 25.1939C35.5927 25.0382 35.5336 24.8751 35.4357 24.7046C35.3336 24.5268 35.2226 24.3935 35.1027 24.3047C34.9785 24.2085 34.8512 24.1584 34.7208 24.1544C34.5862 24.143 34.4448 24.1799 34.2966 24.265ZM41.1226 23.1544C41.5375 22.9161 41.9517 22.7966 42.3651 22.7958C42.7742 22.7875 43.1533 22.8901 43.5024 23.1035C43.8515 23.3169 44.1473 23.6348 44.3898 24.0572C44.6323 24.4796 44.7577 24.8954 44.7659 25.3045C44.7741 25.7135 44.6737 26.0964 44.4645 26.4529C44.2512 26.802 43.937 27.0957 43.522 27.3339C43.107 27.5722 42.6949 27.6954 42.2858 27.7036C41.8725 27.7045 41.4913 27.5982 41.1421 27.3848C40.793 27.1714 40.4972 26.8535 40.2547 26.4311C40.0122 26.0087 39.8868 25.5929 39.8786 25.1838C39.8704 24.7748 39.973 24.3956 40.1864 24.0465C40.3955 23.69 40.7076 23.3926 41.1226 23.1544ZM41.85 24.4216C41.7092 24.5024 41.6061 24.6059 41.5406 24.7322C41.4783 24.8468 41.4574 24.982 41.4779 25.1377C41.4941 25.2861 41.5532 25.4492 41.6553 25.627C41.7532 25.7975 41.8642 25.9308 41.9884 26.027C42.1126 26.1232 42.242 26.177 42.3766 26.1884C42.5144 26.1881 42.6537 26.1476 42.7945 26.0667C42.9427 25.9816 43.048 25.8818 43.1103 25.7672C43.1683 25.6452 43.1871 25.5063 43.1667 25.3506C43.1462 25.1948 43.0871 25.0317 42.9892 24.8613C42.8871 24.6834 42.7761 24.5501 42.6561 24.4613C42.5319 24.3651 42.4047 24.315 42.2743 24.311C42.1397 24.2996 41.9982 24.3365 41.85 24.4216Z" fill="#F1AF9E"/>
</g>
<defs>
<filter id="filter0_d_8101_1208" x="31" y="15" width="84.0838" height="81.6561" filterUnits="userSpaceOnUse" color-interpolation-filters="sRGB">
<feFlood flood-opacity="0" result="BackgroundImageFix"/>
<feColorMatrix in="SourceAlpha" type="matrix" values="0 0 0 0 0 0 0 0 0 0 0 0 0 0 0 0 0 0 127 0" result="hardAlpha"/>
<feOffset dx="1.9134" dy="1.9134"/>
<feComposite in2="hardAlpha" operator="out"/>
<feColorMatrix type="matrix" values="0 0 0 0 0.980392 0 0 0 0 0.870588 0 0 0 0 0.498039 0 0 0 1 0"/>
<feBlend mode="normal" in2="BackgroundImageFix" result="effect1_dropShadow_8101_1208"/>
<feBlend mode="normal" in="SourceGraphic" in2="effect1_dropShadow_8101_1208" result="shape"/>
</filter>
<filter id="filter1_d_8101_1208" x="78" y="59" width="67.1571" height="66.8895" filterUnits="userSpaceOnUse" color-interpolation-filters="sRGB">
<feFlood flood-opacity="0" result="BackgroundImageFix"/>
<feColorMatrix in="SourceAlpha" type="matrix" values="0 0 0 0 0 0 0 0 0 0 0 0 0 0 0 0 0 0 127 0" result="hardAlpha"/>
<feOffset dx="1.24937" dy="1.24937"/>
<feComposite in2="hardAlpha" operator="out"/>
<feColorMatrix type="matrix" values="0 0 0 0 0.980392 0 0 0 0 0.870588 0 0 0 0 0.498039 0 0 0 1 0"/>
<feBlend mode="normal" in2="BackgroundImageFix" result="effect1_dropShadow_8101_1208"/>
<feBlend mode="normal" in="SourceGraphic" in2="effect1_dropShadow_8101_1208" result="shape"/>
</filter>
<filter id="filter2_dd_8101_1208" x="-0.863151" y="-0.863151" width="62.6896" height="62.1244" filterUnits="userSpaceOnUse" color-interpolation-filters="sRGB">
<feFlood flood-opacity="0" result="BackgroundImageFix"/>
<feColorMatrix in="SourceAlpha" type="matrix" values="0 0 0 0 0 0 0 0 0 0 0 0 0 0 0 0 0 0 127 0" result="hardAlpha"/>
<feOffset dx="1.03986" dy="1.03986"/>
<feComposite in2="hardAlpha" operator="out"/>
<feColorMatrix type="matrix" values="0 0 0 0 0.980392 0 0 0 0 0.870588 0 0 0 0 0.498039 0 0 0 1 0"/>
<feBlend mode="normal" in2="BackgroundImageFix" result="effect1_dropShadow_8101_1208"/>
<feColorMatrix in="SourceAlpha" type="matrix" values="0 0 0 0 0 0 0 0 0 0 0 0 0 0 0 0 0 0 127 0" result="hardAlpha"/>
<feOffset dx="-0.863151" dy="-0.863151"/>
<feComposite in2="hardAlpha" operator="out"/>
<feColorMatrix type="matrix" values="0 0 0 0 0.945098 0 0 0 0 0.686275 0 0 0 0 0.619608 0 0 0 1 0"/>
<feBlend mode="normal" in2="effect1_dropShadow_8101_1208" result="effect2_dropShadow_8101_1208"/>
<feBlend mode="normal" in="SourceGraphic" in2="effect2_dropShadow_8101_1208" result="shape"/>
</filter>
<linearGradient id="paint0_linear_8101_1208" x1="146.408" y1="85.0542" x2="93.8862" y2="85.0542" gradientUnits="userSpaceOnUse">
<stop stop-color="#D4AF37" stop-opacity="0.15"/>
<stop offset="1" stop-color="#D4AF37" stop-opacity="0.05"/>
</linearGradient>
<linearGradient id="paint1_linear_8101_1208" x1="45.0864" y1="44.2254" x2="0" y2="44.2254" gradientUnits="userSpaceOnUse">
<stop stop-color="#D4AF37" stop-opacity="0.15"/>
<stop offset="1" stop-color="#D4AF37" stop-opacity="0.05"/>
</linearGradient>
</defs>
</svg>
